<svg width="1400" height="1100" viewBox="0 0 1400 1100" fill="none" xmlns="http://www.w3.org/2000/svg">
  <rect width="1400" height="1100" fill="transparent"/>

  <g stroke="#5D474E" stroke-width="3" stroke-linecap="round" stroke-linejoin="round" opacity="0.55" transform="translate(84 86) rotate(-8)">
    <path d="M0 56C26 30 70 26 112 44V150C72 132 26 136 0 164V56Z"/>
    <path d="M224 56C198 30 154 26 112 44V150C152 132 198 136 224 164V56Z"/>
    <path d="M112 44V170"/>
    <path d="M20 76C48 54 82 52 108 64"/>
    <path d="M204 76C176 54 142 52 116 64"/>
    <path d="M28 106C54 88 82 86 106 94"/>
    <path d="M196 106C170 88 142 86 118 94"/>
  </g>

  <g stroke="#6C5345" stroke-width="3" stroke-linecap="round" stroke-linejoin="round" opacity="0.54" transform="translate(398 76) rotate(7)">
    <rect x="0" y="0" width="186" height="24" rx="8"/>
    <rect x="12" y="30" width="174" height="24" rx="8"/>
    <rect x="24" y="60" width="162" height="24" rx="8"/>
    <line x1="20" y1="12" x2="156" y2="12"/>
    <line x1="30" y1="42" x2="166" y2="42"/>
    <line x1="42" y1="72" x2="172" y2="72"/>
  </g>

  <g stroke="#604A51" stroke-width="3" stroke-linecap="round" stroke-linejoin="round" opacity="0.56" transform="translate(760 78) rotate(-6)">
    <rect x="2" y="6" width="26" height="188" rx="10"/>
    <path d="M15 194L2 176H28L15 194Z"/>
    <path d="M8 14H22"/>
    <path d="M8 28H22"/>
    <path d="M8 42H22"/>
    <path d="M8 56H22"/>
  </g>

  <g stroke="#5E494F" stroke-width="3" stroke-linecap="round" stroke-linejoin="round" opacity="0.54" transform="translate(1012 112) rotate(13)">
    <path d="M28 10C48 48 52 88 34 134"/>
    <path d="M34 16C22 34 14 52 10 70"/>
    <path d="M36 24C50 42 62 58 70 76"/>
    <path d="M32 40C18 60 12 82 14 104"/>
    <path d="M36 50C52 68 64 88 68 110"/>
    <path d="M34 134L22 160"/>
    <ellipse cx="24" cy="168" rx="16" ry="8"/>
  </g>

  <g stroke="#634E54" stroke-width="3" stroke-linecap="round" stroke-linejoin="round" opacity="0.55" transform="translate(160 332) rotate(5)">
    <rect x="18" y="0" width="70" height="36" rx="10"/>
    <path d="M0 36H106V96H0V36Z"/>
    <path d="M20 62H86"/>
    <path d="M20 78H86"/>
    <circle cx="53" cy="52" r="10"/>
  </g>

  <g stroke="#6E5444" stroke-width="3" stroke-linecap="round" stroke-linejoin="round" opacity="0.52" transform="translate(446 310) rotate(-10)">
    <rect x="0" y="0" width="118" height="152" rx="10"/>
    <path d="M16 20H102"/>
    <path d="M16 40H90"/>
    <path d="M16 60H98"/>
    <path d="M16 80H84"/>
    <path d="M16 100H94"/>
    <path d="M86 0V40L74 32L62 40V0"/>
  </g>

  <g stroke="#614B51" stroke-width="3" stroke-linecap="round" stroke-linejoin="round" opacity="0.54" transform="translate(760 338) rotate(9)">
    <rect x="0" y="0" width="172" height="22" rx="8"/>
    <rect x="12" y="28" width="160" height="22" rx="8"/>
    <rect x="24" y="56" width="148" height="22" rx="8"/>
    <rect x="36" y="84" width="136" height="22" rx="8"/>
    <line x1="26" y1="11" x2="142" y2="11"/>
    <line x1="34" y1="39" x2="148" y2="39"/>
    <line x1="44" y1="67" x2="152" y2="67"/>
    <line x1="54" y1="95" x2="158" y2="95"/>
  </g>

  <g stroke="#5F4A50" stroke-width="3" stroke-linecap="round" stroke-linejoin="round" opacity="0.56" transform="translate(1038 394) rotate(-12)">
    <path d="M10 10L26 8L30 160L14 164L10 10Z"/>
    <path d="M14 164L22 190L30 162"/>
    <path d="M12 30L28 28"/>
    <path d="M12 48L28 46"/>
    <path d="M12 66L28 64"/>
  </g>

  <g stroke="#5D474E" stroke-width="3" stroke-linecap="round" stroke-linejoin="round" opacity="0.54" transform="translate(110 644) rotate(8)">
    <path d="M0 56C26 30 70 26 112 44V150C72 132 26 136 0 164V56Z"/>
    <path d="M224 56C198 30 154 26 112 44V150C152 132 198 136 224 164V56Z"/>
    <path d="M112 44V170"/>
    <path d="M24 80C52 58 84 56 108 66"/>
    <path d="M200 80C172 58 140 56 116 66"/>
  </g>

  <g stroke="#6D5345" stroke-width="3" stroke-linecap="round" stroke-linejoin="round" opacity="0.52" transform="translate(452 676) rotate(-6)">
    <rect x="0" y="0" width="170" height="120" rx="10"/>
    <path d="M130 0V34H170"/>
    <path d="M22 28H112"/>
    <path d="M22 48H148"/>
    <path d="M22 68H142"/>
    <path d="M22 88H118"/>
  </g>

  <g stroke="#5F4A50" stroke-width="3" stroke-linecap="round" stroke-linejoin="round" opacity="0.54" transform="translate(838 664) rotate(12)">
    <path d="M26 8C46 46 52 90 36 138"/>
    <path d="M34 14C20 38 14 60 12 82"/>
    <path d="M36 22C52 44 62 64 68 86"/>
    <path d="M35 40C22 62 18 84 20 106"/>
    <path d="M37 50C54 72 64 94 68 116"/>
    <path d="M36 136L26 160"/>
    <ellipse cx="24" cy="170" rx="15" ry="8"/>
  </g>

  <g stroke="#654F56" stroke-width="3" stroke-linecap="round" stroke-linejoin="round" opacity="0.5" transform="translate(1120 730) rotate(-9)">
    <rect x="0" y="0" width="72" height="12" rx="6"/>
    <rect x="0" y="18" width="72" height="12" rx="6"/>
    <rect x="0" y="36" width="72" height="12" rx="6"/>
    <path d="M10 0V48"/>
    <path d="M24 0V48"/>
    <path d="M38 0V48"/>
    <path d="M52 0V48"/>
  </g>
</svg>
